<?xml version="1.0" encoding="utf-8"?>
<!-- Generator: Adobe Illustrator 19.2.0, SVG Export Plug-In . SVG Version: 6.00 Build 0)  -->
<svg version="1.1" id="Layer_1" xmlns="http://www.w3.org/2000/svg" xmlns:xlink="http://www.w3.org/1999/xlink" x="0px" y="0px"
	 viewBox="0 0 25.1 24.7" style="enable-background:new 0 0 25.1 24.7;" xml:space="preserve">
<style type="text/css">
	.st0{fill:url(#SVGID_1_);}
	.st1{fill:#A6A8AC;}
	.st2{fill:#FFFFFF;}
	.st3{fill:none;stroke:#FFFFFF;stroke-miterlimit:10;}
</style>
<g id="SVGID_21_">
	
		<linearGradient id="SVGID_1_" gradientUnits="userSpaceOnUse" x1="12.5197" y1="1.8277" x2="12.5197" y2="23.2666" gradientTransform="matrix(1 0 0 -1 0 25.6)">
		<stop  offset="0" style="stop-color:#54B04B"/>
		<stop  offset="1" style="stop-color:#86BC4A"/>
	</linearGradient>
	<path class="st0" d="M6.1,23.2c-1,0-2.1,0-3.2-0.1l-1-0.2l-0.1-1C1,14.7,2.4,8.5,5.5,5.3c1-1,4.9-4,12.6-4c1.2,0,2.6,0.1,3.9,0.3
		l1,0.2l0.2,0.9c0.8,3.5,0.2,12.5-3.4,16.2C16.9,21.7,12.3,23.2,6.1,23.2z"/>
	<path class="st1" d="M18.2,2.3c1.1,0,2.5,0.1,3.8,0.3h0.2v0.2c0.8,3.3,0.2,11.9-3.1,15.3c-2.7,2.8-7,4.1-12.8,4.1
		c-1,0-2.1,0-3.2-0.1H2.8v-0.3C1.8,13.5,3.9,8.3,6.3,6C8.1,4.2,12.1,2.3,18.2,2.3 M18.2,0.4C12.7,0.4,7.7,2,5,4.7
		c-3.5,3.3-5,9.8-4.1,17.4v0.3l0.2,1.4L2.5,24h0.4c1.1,0.1,2.3,0.1,3.3,0.1c6.5,0,11.2-1.6,14.3-4.7c3.9-4.1,4.5-13.2,3.7-17.1V2.1
		l-0.3-1.2l-1.2-0.3h-0.4C20.8,0.5,19.4,0.4,18.2,0.4z"/>
	<path class="st2" d="M18.2,2.3c1.1,0,2.5,0.1,3.8,0.3h0.2v0.2c0.8,3.3,0.2,11.9-3.1,15.3c-2.7,2.8-7,4.1-12.8,4.1
		c-1,0-2.1,0-3.2-0.1H2.8v-0.3C1.8,13.5,3.9,8.3,6.3,6C8.1,4.2,12.1,2.3,18.2,2.3 M18.2,1.4c-7.8,0-11.6,3-12.6,4
		c-3.2,3-4.7,9.2-3.8,16.6v0.3l0.1,0.7L2.6,23h0.2C3.9,23.1,5,23.1,6,23.1c6.2,0,10.8-1.5,13.5-4.4C23.2,15,23.7,6,23,2.5V2.3
		l-0.1-0.6l-0.5-0.1h-0.2C20.8,1.4,19.4,1.4,18.2,1.4z"/>
</g>
<path class="st3" d="M2.8,22.1L22.2,2.6"/>
</svg>
